name D:\school\WTK\thesis\model\3dpredictsim\Results\MidTarsalJoint\Fal_s1_bCst_PF_Natali2010_ls150_MT_k800_MTP_T2_ig24.mot
datacolumns 128
datarows 4
range 0.56070388 0.59434611
endheader
time	pelvis_tilt	pelvis_list	pelvis_rotation	pelvis_tx	pelvis_ty	pelvis_tz	hip_flexion_l	hip_adduction_l	hip_rotation_l	hip_flexion_r	hip_adduction_r	hip_rotation_r	knee_angle_l	knee_angle_r	ankle_angle_l	ankle_angle_r	subtalar_angle_l	subtalar_angle_r	mtj_angle_l	mtj_angle_r	mtp_angle_l	mtp_angle_r	lumbar_extension	lumbar_bending	lumbar_rotation	arm_flex_l	arm_add_l	arm_rot_l	arm_flex_r	arm_add_r	arm_rot_r	elbow_flex_l	elbow_flex_r	pro_sup_l	pro_sup_r	glut_med1_l/activation	glut_med2_l/activation	glut_med3_l/activation	glut_min1_l/activation	glut_min2_l/activation	glut_min3_l/activation	semimem_l/activation	semiten_l/activation	bifemlh_l/activation	bifemsh_l/activation	sar_l/activation	add_long_l/activation	add_brev_l/activation	add_mag1_l/activation	add_mag2_l/activation	add_mag3_l/activation	tfl_l/activation	pect_l/activation	grac_l/activation	glut_max1_l/activation	glut_max2_l/activation	glut_max3_l/activation	iliacus_l/activation	psoas_l/activation	quad_fem_l/activation	gem_l/activation	peri_l/activation	rect_fem_l/activation	vas_med_l/activation	vas_int_l/activation	vas_lat_l/activation	med_gas_l/activation	lat_gas_l/activation	soleus_l/activation	tib_post_l/activation	flex_dig_l/activation	flex_hal_l/activation	tib_ant_l/activation	per_brev_l/activation	per_long_l/activation	per_tert_l/activation	ext_dig_l/activation	ext_hal_l/activation	ercspn_l/activation	intobl_l/activation	extobl_l/activation	glut_med1_r/activation	glut_med2_r/activation	glut_med3_r/activation	glut_min1_r/activation	glut_min2_r/activation	glut_min3_r/activation	semimem_r/activation	semiten_r/activation	bifemlh_r/activation	bifemsh_r/activation	sar_r/activation	add_long_r/activation	add_brev_r/activation	add_mag1_r/activation	add_mag2_r/activation	add_mag3_r/activation	tfl_r/activation	pect_r/activation	grac_r/activation	glut_max1_r/activation	glut_max2_r/activation	glut_max3_r/activation	iliacus_r/activation	psoas_r/activation	quad_fem_r/activation	gem_r/activation	peri_r/activation	rect_fem_r/activation	vas_med_r/activation	vas_int_r/activation	vas_lat_r/activation	med_gas_r/activation	lat_gas_r/activation	soleus_r/activation	tib_post_r/activation	flex_dig_r/activation	flex_hal_r/activation	tib_ant_r/activation	per_brev_r/activation	per_long_r/activation	per_tert_r/activation	ext_dig_r/activation	ext_hal_r/activation	ercspn_r/activation	intobl_r/activation	extobl_r/activation	
          0.56070388	         -2.93014935	          2.08301723	         -4.94252504	          0.70087985	          0.91962749	          0.00188587	         29.65093352	          3.44007226	         -1.80582903	        -17.21743727	         -0.95473647	          6.95207667	        -12.05062630	         -6.36760467	          6.41030446	         -0.28655182	         -4.62350917	          8.42801324	         -0.01117185	          1.97722136	         -0.93551550	         17.62757975	         -2.20223818	         -0.34518696	          1.95778914	         -4.61570815	        -13.46198035	          6.02124426	          4.61023431	        -13.45227338	         15.56247002	         17.19001273	         34.67079854	         86.51662706	         86.51662706	          0.05000010	          0.05000006	          0.05934506	          0.05000002	          0.05000003	          0.05000022	          0.20683328	          0.05934509	          0.05934523	          0.05000006	          0.05000011	          0.10346280	          0.21589885	          0.19496929	          0.16437952	          0.11410925	          0.05934506	          0.05000151	          0.06901033	          0.05955049	          0.07043674	          0.11247816	          0.05000001	          0.05000002	          0.21920303	          0.05000050	          0.05000005	          0.05000003	          0.10122614	          0.10204238	          0.08711486	          0.05000033	          0.05000015	          0.05934500	          0.05000001	          0.05000009	          0.05000009	          0.49379502	          0.29652518	          0.18127808	          0.14074216	          0.47404073	          0.14798633	          0.05934514	          0.12308262	          0.11115923	          0.33168833	          0.10263030	          0.08018010	          0.33277648	          0.21318311	          0.11763360	          0.05000020	          0.05000004	          0.05000002	          0.06706924	          0.11260988	          0.05000002	          0.05000001	          0.05000002	          0.05000008	          0.05000006	          0.33343212	          0.05000011	          0.05000007	          0.05000108	          0.05000044	          0.05000015	          0.40317389	          0.63652036	          0.05000002	          0.05000010	          0.05000068	          0.20663146	          0.05000008	          0.05000006	          0.05000006	          0.30417048	          0.41303478	          0.32359611	          0.28643101	          0.30518532	          0.39307336	          0.05000000	          0.05934508	          0.12512498	          0.05000005	          0.05000001	          0.05000004	          0.05000000	          0.05000000	          0.05000000	
          0.57191796	         -2.92847777	          2.18307345	         -5.22475547	          0.71764801	          0.91868532	          0.00167267	         29.04410023	          3.81969663	         -1.61653197	        -17.10728006	         -1.25734358	          6.74756131	        -11.96180153	         -8.24851987	          5.82855397	         -0.89971235	         -5.02768324	          9.43601217	         -0.00398909	          1.57228642	         -0.93480765	         19.05253282	         -2.01399388	         -0.55961164	          2.03087124	         -5.45369739	        -13.46238823	          5.72347770	          4.34699555	        -13.46132478	         15.92093279	         16.78034028	         35.84120021	         86.51662706	         86.51662706	          0.05000015	          0.05000011	          0.05000003	          0.05934481	          0.05000055	          0.05000007	          0.17488743	          0.05000004	          0.05000015	          0.05000007	          0.05000090	          0.11777209	          0.18690790	          0.25864492	          0.18430381	          0.10853908	          0.05000004	          0.05002845	          0.05814337	          0.05017312	          0.05934509	          0.12964770	          0.05445772	          0.05491901	          0.55321883	          0.14411839	          0.07836722	          0.07043679	          0.19723707	          0.19748436	          0.16928813	          0.05000000	          0.05000000	          0.05000000	          0.05000010	          0.05000021	          0.05000024	          0.55130408	          0.24983154	          0.19288684	          0.30738988	          0.49900420	          0.15440978	          0.05000007	          0.10370081	          0.09365499	          0.27945741	          0.08646912	          0.06755416	          0.28037421	          0.17961319	          0.09910986	          0.05000045	          0.05000010	          0.05000011	          0.05650786	          0.09487725	          0.10673135	          0.09488618	          0.05215643	          0.05000153	          0.05000098	          0.28092661	          0.08369467	          0.05000161	          0.05000063	          0.05000043	          0.05000040	          0.33968613	          0.57464428	          0.05000023	          0.05029745	          0.05934507	          0.17618556	          0.05000186	          0.16693892	          0.14268975	          0.25627277	          0.34799422	          0.28302231	          0.25886148	          0.25712810	          0.33622185	          0.05000000	          0.05000011	          0.12486544	          0.05000003	          0.05000000	          0.05000004	          0.05000001	          0.07043673	          0.05000001	
          0.58313204	         -2.92318919	          2.28438290	         -5.48233422	          0.73472916	          0.91777857	          0.00147844	         28.32139938	          4.12458088	         -1.36656344	        -16.92274665	         -1.55886271	          6.53378548	        -12.34790190	        -10.25141850	          5.21763004	         -1.67462426	         -5.44782392	         10.41760098	         -0.10506773	          1.10281326	         -0.95842476	         20.46108889	         -1.80494234	         -0.78381581	          2.09267314	         -6.32824375	        -13.46928451	          5.47128216	          4.00924442	        -13.46788985	         16.21358141	         16.42893385	         36.98996707	         86.51662706	         86.51662706	          0.24841511	          0.05000001	          0.20413210	          0.05000003	          0.05000002	          0.24093999	          0.16549319	          0.07865179	          0.07131334	          0.05000003	          0.05000007	          0.09922657	          0.21476470	          0.21791616	          0.15528158	          0.12813731	          0.05000012	          0.05934553	          0.10855482	          0.05000002	          0.05000004	          0.10923211	          0.05934504	          0.05360541	          0.46610349	          0.12142409	          0.15067067	          0.05934512	          0.16617817	          0.16638652	          0.14263035	          0.05441353	          0.05678215	          0.05536409	          0.05934504	          0.05000030	          0.05000024	          0.46449028	          0.28822792	          0.16251297	          0.25898534	          0.54063645	          0.13009489	          0.05000000	          0.11580434	          0.07890715	          0.35450482	          0.07285283	          0.05691642	          0.23622375	          0.15132952	          0.08350304	          0.05000026	          0.05000008	          0.05000006	          0.05000002	          0.07993698	          0.14797192	          0.10945601	          0.05934533	          0.05934472	          0.05715109	          0.23668920	          0.08365885	          0.05000108	          0.05000174	          0.05000173	          0.05005317	          0.28619581	          0.54964205	          0.05698675	          0.05000019	          0.05000002	          0.14844164	          0.11827465	          0.14065114	          0.12022047	          0.21591751	          0.29319559	          0.23845480	          0.21809859	          0.21663819	          0.28327705	          0.05000000	          0.05000009	          0.15255826	          0.05000001	          0.05000000	          0.05000002	          0.05533467	          0.05934506	          0.05934484	
          0.59434611	         -2.91590393	          2.38772186	         -5.70770886	          0.75195401	          0.91691538	          0.00127614	         27.49495661	          4.38047301	         -1.10809452	        -16.64142963	         -1.85659707	          6.31832900	        -12.74394953	        -12.39488114	          4.69224840	         -2.63052738	         -5.85562181	         11.35401934	         -0.07924224	          0.61256615	         -0.94373870	         21.77383266	         -1.59242247	         -1.01740610	          2.14566948	         -7.19694202	        -13.48117533	          5.27811439	          3.62021475	        -13.47665714	         16.45011946	         16.11127088	         38.10784853	         86.51662706	         86.51662706	          0.32347127	          0.27451096	          0.31988809	          0.12714425	          0.21495504	          0.20299927	          0.13943300	          0.07602363	          0.06008366	          0.07611036	          0.05000102	          0.08360137	          0.18094572	          0.18360093	          0.13082944	          0.14768726	          0.05000008	          0.05000044	          0.09146074	          0.20750158	          0.15623492	          0.12030110	          0.05000001	          0.05000001	          0.39270621	          0.10230347	          0.12694460	          0.05000005	          0.14001016	          0.14018578	          0.12017040	          0.05000001	          0.05000003	          0.05000000	          0.05000000	          0.05000002	          0.05000003	          0.59611646	          0.33746409	          0.18056165	          0.56700072	          0.56550123	          0.25932227	          0.07516543	          0.09756867	          0.06648164	          0.31166387	          0.06138071	          0.05000001	          0.32881832	          0.12749969	          0.07035383	          0.05000054	          0.05000003	          0.05000003	          0.05000005	          0.06734942	          0.13307330	          0.09222003	          0.05000031	          0.05000023	          0.05000008	          0.23513271	          0.07048543	          0.05000014	          0.05000026	          0.05000015	          0.05000010	          0.24112858	          0.50200778	          0.05000001	          0.05000014	          0.05000007	          0.12506687	          0.10008227	          0.13301577	          0.11777245	          0.18191699	          0.24702610	          0.20090533	          0.18375463	          0.18252421	          0.23866945	          0.05000004	          0.07384468	          0.15459395	          0.05000006	          0.08881679	          0.05000007	          0.06992570	          0.05000000	          0.05000000	
